<svg width="269" height="77" viewBox="0 0 269 77" fill="none" xmlns="http://www.w3.org/2000/svg">
<g filter="url(#filter0_i_86_177)">
<rect width="269" height="77" fill="#0C03B9"/>
<path d="M63.8831 26.166C65.2884 26.166 66.4671 26.3473 67.4191 26.71C68.3937 27.0727 69.3797 27.662 70.3771 28.478L68.6091 30.552C67.1811 29.396 65.6737 28.818 64.0871 28.818C62.1377 28.818 60.5624 29.566 59.3611 31.062C58.1824 32.558 57.5931 34.9607 57.5931 38.27C57.5931 41.4887 58.1824 43.8687 59.3611 45.41C60.5397 46.9287 62.1037 47.688 64.0531 47.688C65.0504 47.688 65.9231 47.518 66.6711 47.178C67.4191 46.838 68.2124 46.362 69.0511 45.75L70.6491 47.79C69.9237 48.538 68.9944 49.1613 67.8611 49.66C66.7277 50.1587 65.4244 50.408 63.9511 50.408C62.0471 50.408 60.3471 49.9433 58.8511 49.014C57.3777 48.062 56.2217 46.6793 55.3831 44.866C54.5671 43.03 54.1591 40.8313 54.1591 38.27C54.1591 35.7087 54.5897 33.5213 55.4511 31.708C56.3124 29.872 57.4797 28.4893 58.9531 27.56C60.4264 26.6307 62.0697 26.166 63.8831 26.166ZM80.6124 31.674C83.1284 31.674 85.0777 32.5127 86.4604 34.19C87.8657 35.8673 88.5684 38.1453 88.5684 41.024C88.5684 42.8827 88.2511 44.526 87.6164 45.954C86.9817 47.3593 86.0637 48.4587 84.8624 49.252C83.6611 50.0227 82.2331 50.408 80.5784 50.408C78.0624 50.408 76.1017 49.5693 74.6964 47.892C73.2911 46.2147 72.5884 43.9367 72.5884 41.058C72.5884 39.1993 72.9057 37.5673 73.5404 36.162C74.1751 34.734 75.0931 33.6347 76.2944 32.864C77.4957 32.0707 78.9351 31.674 80.6124 31.674ZM80.6124 34.19C77.5071 34.19 75.9544 36.4793 75.9544 41.058C75.9544 45.614 77.4957 47.892 80.5784 47.892C83.6611 47.892 85.2024 45.6027 85.2024 41.024C85.2024 36.468 83.6724 34.19 80.6124 34.19ZM102.168 31.674C103.8 31.674 105.069 32.1613 105.976 33.136C106.905 34.1107 107.37 35.448 107.37 37.148V50H104.242V37.59C104.242 36.3207 104.004 35.4253 103.528 34.904C103.052 34.3827 102.349 34.122 101.42 34.122C100.468 34.122 99.6292 34.394 98.9039 34.938C98.1785 35.482 97.4985 36.264 96.8639 37.284V50H93.7359V32.082H96.4219L96.6939 34.734C97.3285 33.782 98.1105 33.034 99.0399 32.49C99.9919 31.946 101.035 31.674 102.168 31.674ZM122.702 49.184C121.523 50 120.186 50.408 118.69 50.408C117.171 50.408 115.981 49.9773 115.12 49.116C114.281 48.232 113.862 46.9627 113.862 45.308V34.496H110.734V32.082H113.862V28.036L116.99 27.662V32.082H121.24L120.9 34.496H116.99V45.172C116.99 46.1013 117.148 46.7813 117.466 47.212C117.806 47.62 118.361 47.824 119.132 47.824C119.834 47.824 120.628 47.586 121.512 47.11L122.702 49.184ZM137.78 45.818C137.78 46.5433 137.905 47.0873 138.154 47.45C138.404 47.79 138.778 48.0507 139.276 48.232L138.562 50.408C137.633 50.2947 136.885 50.034 136.318 49.626C135.752 49.218 135.332 48.5833 135.06 47.722C133.859 49.5127 132.08 50.408 129.722 50.408C127.954 50.408 126.56 49.9093 125.54 48.912C124.52 47.9147 124.01 46.6113 124.01 45.002C124.01 43.098 124.69 41.636 126.05 40.616C127.433 39.596 129.382 39.086 131.898 39.086H134.652V37.76C134.652 36.4907 134.346 35.584 133.734 35.04C133.122 34.496 132.182 34.224 130.912 34.224C129.598 34.224 127.988 34.5413 126.084 35.176L125.302 32.898C127.524 32.082 129.586 31.674 131.49 31.674C133.598 31.674 135.174 32.1953 136.216 33.238C137.259 34.258 137.78 35.72 137.78 37.624V45.818ZM130.436 48.062C132.227 48.062 133.632 47.1327 134.652 45.274V41.16H132.306C128.997 41.16 127.342 42.384 127.342 44.832C127.342 45.8973 127.603 46.702 128.124 47.246C128.646 47.79 129.416 48.062 130.436 48.062ZM150.733 31.674C151.798 31.674 152.773 31.8327 153.657 32.15C154.541 32.4447 155.391 32.932 156.207 33.612L154.711 35.584C154.076 35.1307 153.453 34.802 152.841 34.598C152.251 34.3713 151.594 34.258 150.869 34.258C149.418 34.258 148.285 34.836 147.469 35.992C146.675 37.148 146.279 38.8593 146.279 41.126C146.279 43.3927 146.675 45.07 147.469 46.158C148.262 47.2233 149.395 47.756 150.869 47.756C151.571 47.756 152.217 47.654 152.807 47.45C153.396 47.2233 154.053 46.872 154.779 46.396L156.207 48.436C154.575 49.7507 152.75 50.408 150.733 50.408C148.307 50.408 146.392 49.592 144.987 47.96C143.604 46.328 142.913 44.0727 142.913 41.194C142.913 39.29 143.23 37.624 143.865 36.196C144.499 34.768 145.395 33.6573 146.551 32.864C147.729 32.0707 149.123 31.674 150.733 31.674ZM169.485 49.184C168.306 50 166.969 50.408 165.473 50.408C163.954 50.408 162.764 49.9773 161.903 49.116C161.064 48.232 160.645 46.9627 160.645 45.308V34.496H157.517V32.082H160.645V28.036L163.773 27.662V32.082H168.023L167.683 34.496H163.773V45.172C163.773 46.1013 163.932 46.7813 164.249 47.212C164.589 47.62 165.144 47.824 165.915 47.824C166.618 47.824 167.411 47.586 168.295 47.11L169.485 49.184ZM197.942 42.486C197.942 44.05 197.613 45.4327 196.956 46.634C196.321 47.8127 195.381 48.742 194.134 49.422C192.91 50.0793 191.437 50.408 189.714 50.408C187.107 50.408 185.09 49.694 183.662 48.266C182.257 46.8153 181.554 44.8887 181.554 42.486V26.574H184.784V42.248C184.784 44.0613 185.192 45.4213 186.008 46.328C186.824 47.2347 188.059 47.688 189.714 47.688C191.391 47.688 192.638 47.246 193.454 46.362C194.27 45.4553 194.678 44.084 194.678 42.248V26.574H197.942V42.486ZM208.932 31.674C210.156 31.674 211.255 31.844 212.23 32.184C213.205 32.524 214.134 33.034 215.018 33.714L213.692 35.686C212.876 35.1647 212.094 34.7793 211.346 34.53C210.621 34.2807 209.85 34.156 209.034 34.156C208.014 34.156 207.209 34.3713 206.62 34.802C206.031 35.21 205.736 35.7767 205.736 36.502C205.736 37.2273 206.008 37.794 206.552 38.202C207.119 38.61 208.127 39.0067 209.578 39.392C211.573 39.8907 213.057 40.5707 214.032 41.432C215.029 42.2933 215.528 43.472 215.528 44.968C215.528 46.736 214.837 48.0847 213.454 49.014C212.094 49.9433 210.428 50.408 208.456 50.408C205.736 50.408 203.481 49.626 201.69 48.062L203.356 46.158C204.875 47.314 206.552 47.892 208.388 47.892C209.567 47.892 210.496 47.654 211.176 47.178C211.879 46.6793 212.23 46.0107 212.23 45.172C212.23 44.56 212.105 44.0727 211.856 43.71C211.607 43.3247 211.176 42.996 210.564 42.724C209.952 42.4293 209.057 42.1233 207.878 41.806C205.974 41.3073 204.591 40.6387 203.73 39.8C202.891 38.9613 202.472 37.896 202.472 36.604C202.472 35.6747 202.744 34.836 203.288 34.088C203.855 33.3173 204.625 32.728 205.6 32.32C206.597 31.8893 207.708 31.674 208.932 31.674Z" fill="white"/>
</g>
<defs>
<filter id="filter0_i_86_177" x="0" y="0" width="271" height="81" filterUnits="userSpaceOnUse" color-interpolation-filters="sRGB">
<feFlood flood-opacity="0" result="BackgroundImageFix"/>
<feBlend mode="normal" in="SourceGraphic" in2="BackgroundImageFix" result="shape"/>
<feColorMatrix in="SourceAlpha" type="matrix" values="0 0 0 0 0 0 0 0 0 0 0 0 0 0 0 0 0 0 127 0" result="hardAlpha"/>
<feOffset dx="2" dy="4"/>
<feGaussianBlur stdDeviation="2"/>
<feComposite in2="hardAlpha" operator="arithmetic" k2="-1" k3="1"/>
<feColorMatrix type="matrix" values="0 0 0 0 0 0 0 0 0 0 0 0 0 0 0 0 0 0 0.25 0"/>
<feBlend mode="normal" in2="shape" result="effect1_innerShadow_86_177"/>
</filter>
</defs>
</svg>
