<svg width="521" height="489" viewBox="0 0 521 489" fill="none" xmlns="http://www.w3.org/2000/svg">
<g filter="url(#filter0_di_14_13)">
<path d="M210.446 262L156.753 65.6364H180.915L221.952 225.565H223.869L265.673 65.6364H292.52L334.324 225.565H336.241L377.278 65.6364H401.44L347.747 262H323.202L279.864 105.523H278.33L234.991 262H210.446Z" fill="#251476"/>
</g>
<g filter="url(#filter1_di_14_13)">
<path d="M210.446 368L156.753 171.636H180.915L221.952 331.565H223.869L265.673 171.636H292.52L334.324 331.565H336.241L377.278 171.636H401.44L347.747 368H323.202L279.864 211.523H278.33L234.991 368H210.446Z" fill="url(#paint0_linear_14_13)"/>
</g>
<path d="M279.5 4L303.316 60.25H255.684L279.5 4Z" fill="url(#paint1_linear_14_13)"/>
<g filter="url(#filter2_di_14_13)">
<line x1="374.02" y1="166.5" x2="184.025" y2="167.857" stroke="#251476" stroke-width="7"/>
</g>
<g filter="url(#filter3_d_14_13)">
<path d="M84 433L79.296 394.12H86.592L88.896 416.776L91.824 394.168H97.536L100.608 416.632L102.96 394.12H110.16L105.504 433H98.016L94.704 409.528L91.584 433H84ZM111.492 433L118.836 394.12H128.628L135.876 433H127.956L126.66 424.792H120.948L119.604 433H111.492ZM121.716 419.656H125.844L123.78 404.488L121.716 419.656ZM139.802 433V394.12H149.642C153.034 394.12 155.674 394.552 157.562 395.416C159.45 396.248 160.778 397.576 161.546 399.4C162.314 401.192 162.698 403.528 162.698 406.408V420.52C162.698 423.432 162.314 425.816 161.546 427.672C160.778 429.496 159.45 430.84 157.562 431.704C155.706 432.568 153.098 433 149.738 433H139.802ZM148.394 427.048H149.738C151.05 427.048 151.994 426.856 152.57 426.472C153.146 426.088 153.498 425.512 153.626 424.744C153.786 423.976 153.866 423.016 153.866 421.864V404.92C153.866 403.768 153.77 402.84 153.578 402.136C153.418 401.432 153.05 400.92 152.474 400.6C151.898 400.28 150.97 400.12 149.69 400.12H148.394V427.048ZM168.071 433V394.12H176.663V409.864H182.711V394.12H191.303V433H182.711V416.008H176.663V433H168.071ZM200.344 433L195.64 394.12H202.936L205.24 416.776L208.168 394.168H213.88L216.952 416.632L219.304 394.12H226.504L221.848 433H214.36L211.048 409.528L207.928 433H200.344ZM227.836 433L235.18 394.12H244.972L252.22 433H244.3L243.004 424.792H237.292L235.948 433H227.836ZM238.06 419.656H242.188L240.124 404.488L238.06 419.656ZM276.635 433.576C274.843 433.576 273.243 433.208 271.835 432.472C270.459 431.704 269.371 430.632 268.571 429.256C267.803 427.848 267.419 426.184 267.419 424.264C267.419 421.8 267.931 419.64 268.955 417.784C270.011 415.928 271.339 414.168 272.939 412.504C272.299 411.352 271.675 410.2 271.067 409.048C270.459 407.864 269.963 406.696 269.579 405.544C269.227 404.36 269.051 403.208 269.051 402.088C269.051 400.488 269.371 399.048 270.011 397.768C270.683 396.488 271.643 395.464 272.891 394.696C274.171 393.928 275.723 393.544 277.547 393.544C279.211 393.544 280.667 393.896 281.915 394.6C283.163 395.272 284.139 396.232 284.843 397.48C285.579 398.728 285.947 400.168 285.947 401.8C285.947 403.592 285.579 405.176 284.843 406.552C284.139 407.928 283.275 409.176 282.251 410.296C281.259 411.384 280.299 412.44 279.371 413.464L283.931 422.008C284.219 421.496 284.459 420.776 284.651 419.848C284.875 418.888 285.035 417.864 285.131 416.776C285.259 415.688 285.339 414.728 285.371 413.896H290.651C290.651 415.784 290.523 417.448 290.267 418.888C290.043 420.328 289.707 421.64 289.259 422.824C288.843 424.008 288.331 425.16 287.723 426.28C288.043 426.696 288.491 427.048 289.067 427.336C289.675 427.624 290.283 427.8 290.891 427.864V433.576C290.667 433.608 290.443 433.64 290.219 433.672C289.995 433.704 289.771 433.72 289.547 433.72C288.747 433.72 287.963 433.544 287.195 433.192C286.459 432.872 285.787 432.456 285.179 431.944C284.571 431.4 284.043 430.856 283.595 430.312C282.795 431.336 281.803 432.136 280.619 432.712C279.467 433.288 278.139 433.576 276.635 433.576ZM276.923 428.344C277.627 428.344 278.267 428.168 278.843 427.816C279.451 427.432 279.963 426.936 280.379 426.328L275.627 417.544C274.923 418.664 274.411 419.752 274.091 420.808C273.771 421.832 273.611 422.872 273.611 423.928C273.611 424.76 273.739 425.512 273.995 426.184C274.251 426.856 274.619 427.384 275.099 427.768C275.611 428.152 276.219 428.344 276.923 428.344ZM277.163 409.336C277.611 408.728 278.043 407.976 278.459 407.08C278.875 406.184 279.211 405.256 279.467 404.296C279.755 403.304 279.899 402.424 279.899 401.656C279.899 400.824 279.675 400.184 279.227 399.736C278.779 399.288 278.251 399.064 277.643 399.064C276.971 399.064 276.427 399.336 276.011 399.88C275.595 400.424 275.387 401.16 275.387 402.088C275.387 403.4 275.579 404.696 275.963 405.976C276.347 407.224 276.747 408.344 277.163 409.336ZM311.203 433L306.499 394.12H313.795L316.099 416.776L319.027 394.168H324.739L327.811 416.632L330.163 394.12H337.363L332.707 433H325.219L321.907 409.528L318.787 433H311.203ZM338.696 433L346.04 394.12H355.832L363.08 433H355.16L353.864 424.792H348.152L346.808 433H338.696ZM348.92 419.656H353.048L350.984 404.488L348.92 419.656ZM367.005 433V394.12H376.845C380.237 394.12 382.877 394.552 384.765 395.416C386.653 396.248 387.981 397.576 388.749 399.4C389.517 401.192 389.901 403.528 389.901 406.408V420.52C389.901 423.432 389.517 425.816 388.749 427.672C387.981 429.496 386.653 430.84 384.765 431.704C382.909 432.568 380.301 433 376.941 433H367.005ZM375.597 427.048H376.941C378.253 427.048 379.197 426.856 379.773 426.472C380.349 426.088 380.701 425.512 380.829 424.744C380.989 423.976 381.069 423.016 381.069 421.864V404.92C381.069 403.768 380.973 402.84 380.781 402.136C380.621 401.432 380.253 400.92 379.677 400.6C379.101 400.28 378.173 400.12 376.893 400.12H375.597V427.048ZM395.274 433V394.12H403.866V409.864H409.914V394.12H418.506V433H409.914V416.008H403.866V433H395.274ZM427.547 433L422.843 394.12H430.139L432.443 416.776L435.371 394.168H441.083L444.155 416.632L446.507 394.12H453.707L449.051 433H441.563L438.251 409.528L435.131 433H427.547ZM455.039 433L462.383 394.12H472.175L479.423 433H471.503L470.207 424.792H464.495L463.151 433H455.039ZM465.263 419.656H469.391L467.327 404.488L465.263 419.656Z" fill="#251476"/>
</g>
<path d="M149.6 463.857L144.158 482H141.588L148 462.094H149.613L149.6 463.857ZM154.002 482L148.561 463.857L148.533 462.094H150.16L156.572 482H154.002ZM154.002 474.631V476.791H144.404V474.631H154.002ZM163.818 482H160.428L160.455 479.854H163.818C165.012 479.854 165.983 479.626 166.73 479.17C167.478 478.705 168.029 478.021 168.385 477.119C168.74 476.208 168.918 475.082 168.918 473.742V470.338C168.918 469.281 168.818 468.369 168.617 467.604C168.417 466.838 168.116 466.209 167.715 465.717C167.314 465.225 166.808 464.86 166.197 464.623C165.587 464.377 164.871 464.254 164.051 464.254H160.359V462.094H164.051C165.172 462.094 166.184 462.271 167.086 462.627C167.988 462.973 168.763 463.497 169.41 464.199C170.057 464.892 170.549 465.753 170.887 466.783C171.233 467.813 171.406 469.007 171.406 470.365V473.742C171.406 475.1 171.233 476.294 170.887 477.324C170.549 478.354 170.053 479.215 169.396 479.908C168.74 480.601 167.943 481.125 167.004 481.48C166.074 481.827 165.012 482 163.818 482ZM161.822 462.094V482H159.307V462.094H161.822ZM180.471 478.979L185.256 462.094H187.99L181.811 482H179.883L180.471 478.979ZM176.178 462.094L180.922 478.979L181.551 482H179.623L173.443 462.094H176.178ZM203.453 470.324V473.783C203.453 475.187 203.298 476.422 202.988 477.488C202.688 478.546 202.245 479.43 201.662 480.141C201.079 480.852 200.377 481.385 199.557 481.74C198.736 482.096 197.811 482.273 196.781 482.273C195.788 482.273 194.881 482.096 194.061 481.74C193.24 481.385 192.534 480.852 191.941 480.141C191.349 479.43 190.889 478.546 190.561 477.488C190.242 476.422 190.082 475.187 190.082 473.783V470.324C190.082 468.921 190.242 467.69 190.561 466.633C190.88 465.566 191.335 464.678 191.928 463.967C192.52 463.256 193.227 462.723 194.047 462.367C194.867 462.003 195.774 461.82 196.768 461.82C197.798 461.82 198.723 462.003 199.543 462.367C200.372 462.723 201.074 463.256 201.648 463.967C202.232 464.678 202.678 465.566 202.988 466.633C203.298 467.69 203.453 468.921 203.453 470.324ZM200.965 473.783V470.297C200.965 469.203 200.874 468.264 200.691 467.48C200.509 466.688 200.24 466.04 199.885 465.539C199.529 465.038 199.092 464.669 198.572 464.432C198.053 464.186 197.451 464.062 196.768 464.062C196.12 464.062 195.537 464.186 195.018 464.432C194.507 464.669 194.07 465.038 193.705 465.539C193.34 466.04 193.058 466.688 192.857 467.48C192.666 468.264 192.57 469.203 192.57 470.297V473.783C192.57 474.886 192.666 475.834 192.857 476.627C193.058 477.411 193.34 478.058 193.705 478.568C194.079 479.07 194.525 479.443 195.045 479.689C195.564 479.926 196.143 480.045 196.781 480.045C197.465 480.045 198.066 479.926 198.586 479.689C199.115 479.443 199.552 479.07 199.898 478.568C200.254 478.058 200.518 477.411 200.691 476.627C200.874 475.834 200.965 474.886 200.965 473.783ZM217.316 475.67H219.832C219.768 477.037 219.49 478.217 218.998 479.211C218.515 480.195 217.809 480.952 216.879 481.48C215.958 482.009 214.805 482.273 213.42 482.273C212.426 482.273 211.529 482.077 210.727 481.686C209.924 481.294 209.236 480.733 208.662 480.004C208.097 479.266 207.664 478.382 207.363 477.352C207.062 476.322 206.912 475.164 206.912 473.879V470.201C206.912 468.925 207.062 467.772 207.363 466.742C207.673 465.712 208.115 464.833 208.689 464.104C209.273 463.365 209.979 462.8 210.809 462.408C211.647 462.016 212.595 461.82 213.652 461.82C214.947 461.82 216.04 462.08 216.934 462.6C217.836 463.11 218.529 463.862 219.012 464.855C219.504 465.84 219.777 467.048 219.832 468.479H217.316C217.253 467.43 217.089 466.578 216.824 465.922C216.56 465.257 216.168 464.769 215.648 464.459C215.138 464.14 214.473 463.98 213.652 463.98C212.923 463.98 212.29 464.126 211.752 464.418C211.223 464.71 210.786 465.129 210.439 465.676C210.102 466.214 209.847 466.865 209.674 467.631C209.51 468.387 209.428 469.235 209.428 470.174V473.879C209.428 474.754 209.496 475.57 209.633 476.326C209.779 477.083 210.007 477.748 210.316 478.322C210.635 478.887 211.05 479.329 211.561 479.648C212.071 479.967 212.691 480.127 213.42 480.127C214.34 480.127 215.07 479.977 215.607 479.676C216.145 479.375 216.542 478.896 216.797 478.24C217.061 477.584 217.234 476.727 217.316 475.67ZM229.689 463.857L224.248 482H221.678L228.09 462.094H229.703L229.689 463.857ZM234.092 482L228.65 463.857L228.623 462.094H230.25L236.662 482H234.092ZM234.092 474.631V476.791H224.494V474.631H234.092ZM244.018 462.094V482H241.529V462.094H244.018ZM249.254 462.094V464.254H236.307V462.094H249.254ZM262.898 479.854V482H254.258V479.854H262.898ZM254.709 462.094V482H252.193V462.094H254.709ZM261.736 470.652V472.799H254.258V470.652H261.736ZM262.762 462.094V464.254H254.258V462.094H262.762ZM274.82 476.969C274.82 476.504 274.766 476.094 274.656 475.738C274.547 475.374 274.355 475.046 274.082 474.754C273.809 474.462 273.426 474.184 272.934 473.92C272.441 473.656 271.817 473.387 271.061 473.113C270.24 472.822 269.497 472.498 268.832 472.143C268.167 471.778 267.597 471.363 267.123 470.898C266.658 470.434 266.298 469.9 266.043 469.299C265.788 468.697 265.66 468.009 265.66 467.234C265.66 466.46 265.792 465.744 266.057 465.088C266.33 464.432 266.713 463.862 267.205 463.379C267.706 462.887 268.308 462.504 269.01 462.23C269.712 461.957 270.495 461.82 271.361 461.82C272.656 461.82 273.745 462.107 274.629 462.682C275.522 463.247 276.197 463.99 276.652 464.91C277.108 465.822 277.336 466.797 277.336 467.836H274.82C274.82 467.089 274.697 466.428 274.451 465.854C274.214 465.27 273.84 464.814 273.33 464.486C272.829 464.149 272.173 463.98 271.361 463.98C270.632 463.98 270.031 464.122 269.557 464.404C269.092 464.687 268.745 465.07 268.518 465.553C268.299 466.036 268.189 466.587 268.189 467.207C268.189 467.626 268.262 468.009 268.408 468.355C268.554 468.693 268.777 469.007 269.078 469.299C269.388 469.59 269.771 469.859 270.227 470.105C270.691 470.352 271.238 470.589 271.867 470.816C272.842 471.135 273.676 471.491 274.369 471.883C275.062 472.275 275.627 472.717 276.064 473.209C276.502 473.692 276.821 474.243 277.021 474.863C277.231 475.474 277.336 476.167 277.336 476.941C277.336 477.753 277.199 478.486 276.926 479.143C276.661 479.799 276.274 480.359 275.764 480.824C275.253 481.289 274.638 481.649 273.918 481.904C273.198 482.15 272.387 482.273 271.484 482.273C270.701 482.273 269.93 482.146 269.174 481.891C268.426 481.635 267.747 481.253 267.137 480.742C266.526 480.232 266.038 479.603 265.674 478.855C265.309 478.099 265.127 477.224 265.127 476.23H267.643C267.643 476.914 267.743 477.502 267.943 477.994C268.144 478.477 268.422 478.878 268.777 479.197C269.133 479.516 269.538 479.753 269.994 479.908C270.459 480.054 270.956 480.127 271.484 480.127C272.214 480.127 272.824 479.999 273.316 479.744C273.818 479.489 274.191 479.124 274.438 478.65C274.693 478.176 274.82 477.616 274.82 476.969ZM295.766 476.969C295.766 476.504 295.711 476.094 295.602 475.738C295.492 475.374 295.301 475.046 295.027 474.754C294.754 474.462 294.371 474.184 293.879 473.92C293.387 473.656 292.762 473.387 292.006 473.113C291.186 472.822 290.443 472.498 289.777 472.143C289.112 471.778 288.542 471.363 288.068 470.898C287.604 470.434 287.243 469.9 286.988 469.299C286.733 468.697 286.605 468.009 286.605 467.234C286.605 466.46 286.738 465.744 287.002 465.088C287.275 464.432 287.658 463.862 288.15 463.379C288.652 462.887 289.253 462.504 289.955 462.23C290.657 461.957 291.441 461.82 292.307 461.82C293.601 461.82 294.69 462.107 295.574 462.682C296.467 463.247 297.142 463.99 297.598 464.91C298.053 465.822 298.281 466.797 298.281 467.836H295.766C295.766 467.089 295.643 466.428 295.396 465.854C295.16 465.27 294.786 464.814 294.275 464.486C293.774 464.149 293.118 463.98 292.307 463.98C291.577 463.98 290.976 464.122 290.502 464.404C290.037 464.687 289.691 465.07 289.463 465.553C289.244 466.036 289.135 466.587 289.135 467.207C289.135 467.626 289.208 468.009 289.354 468.355C289.499 468.693 289.723 469.007 290.023 469.299C290.333 469.59 290.716 469.859 291.172 470.105C291.637 470.352 292.184 470.589 292.812 470.816C293.788 471.135 294.622 471.491 295.314 471.883C296.007 472.275 296.572 472.717 297.01 473.209C297.447 473.692 297.766 474.243 297.967 474.863C298.176 475.474 298.281 476.167 298.281 476.941C298.281 477.753 298.145 478.486 297.871 479.143C297.607 479.799 297.219 480.359 296.709 480.824C296.199 481.289 295.583 481.649 294.863 481.904C294.143 482.15 293.332 482.273 292.43 482.273C291.646 482.273 290.876 482.146 290.119 481.891C289.372 481.635 288.693 481.253 288.082 480.742C287.471 480.232 286.984 479.603 286.619 478.855C286.255 478.099 286.072 477.224 286.072 476.23H288.588C288.588 476.914 288.688 477.502 288.889 477.994C289.089 478.477 289.367 478.878 289.723 479.197C290.078 479.516 290.484 479.753 290.939 479.908C291.404 480.054 291.901 480.127 292.43 480.127C293.159 480.127 293.77 479.999 294.262 479.744C294.763 479.489 295.137 479.124 295.383 478.65C295.638 478.176 295.766 477.616 295.766 476.969ZM304.201 462.094V482H301.686V462.094H304.201ZM321.592 462.094V482H319.062L311.092 466.646V482H308.576V462.094H311.092L319.104 477.488V462.094H321.592ZM335.906 475.67H338.422C338.358 477.037 338.08 478.217 337.588 479.211C337.105 480.195 336.398 480.952 335.469 481.48C334.548 482.009 333.395 482.273 332.01 482.273C331.016 482.273 330.118 482.077 329.316 481.686C328.514 481.294 327.826 480.733 327.252 480.004C326.687 479.266 326.254 478.382 325.953 477.352C325.652 476.322 325.502 475.164 325.502 473.879V470.201C325.502 468.925 325.652 467.772 325.953 466.742C326.263 465.712 326.705 464.833 327.279 464.104C327.863 463.365 328.569 462.8 329.398 462.408C330.237 462.016 331.185 461.82 332.242 461.82C333.536 461.82 334.63 462.08 335.523 462.6C336.426 463.11 337.118 463.862 337.602 464.855C338.094 465.84 338.367 467.048 338.422 468.479H335.906C335.842 467.43 335.678 466.578 335.414 465.922C335.15 465.257 334.758 464.769 334.238 464.459C333.728 464.14 333.062 463.98 332.242 463.98C331.513 463.98 330.88 464.126 330.342 464.418C329.813 464.71 329.376 465.129 329.029 465.676C328.692 466.214 328.437 466.865 328.264 467.631C328.1 468.387 328.018 469.235 328.018 470.174V473.879C328.018 474.754 328.086 475.57 328.223 476.326C328.368 477.083 328.596 477.748 328.906 478.322C329.225 478.887 329.64 479.329 330.15 479.648C330.661 479.967 331.281 480.127 332.01 480.127C332.93 480.127 333.66 479.977 334.197 479.676C334.735 479.375 335.132 478.896 335.387 478.24C335.651 477.584 335.824 476.727 335.906 475.67ZM352.531 479.854V482H343.891V479.854H352.531ZM344.342 462.094V482H341.826V462.094H344.342ZM351.369 470.652V472.799H343.891V470.652H351.369ZM352.395 462.094V464.254H343.891V462.094H352.395ZM368.828 461.984V482H366.408V465.143L362.225 467.002V464.719L368.459 461.984H368.828ZM377.646 479.881H377.838C379.068 479.881 380.057 479.676 380.805 479.266C381.552 478.855 382.113 478.304 382.486 477.611C382.869 476.919 383.124 476.139 383.252 475.273C383.389 474.398 383.457 473.501 383.457 472.58V469.531C383.457 468.629 383.37 467.827 383.197 467.125C383.033 466.423 382.81 465.835 382.527 465.361C382.254 464.887 381.939 464.527 381.584 464.281C381.238 464.035 380.882 463.912 380.518 463.912C380.053 463.912 379.643 464.031 379.287 464.268C378.932 464.495 378.631 464.819 378.385 465.238C378.148 465.658 377.965 466.15 377.838 466.715C377.71 467.28 377.646 467.895 377.646 468.561C377.646 469.153 377.701 469.727 377.811 470.283C377.92 470.839 378.089 471.34 378.316 471.787C378.553 472.234 378.845 472.589 379.191 472.854C379.547 473.109 379.966 473.236 380.449 473.236C380.85 473.236 381.238 473.127 381.611 472.908C381.994 472.68 382.34 472.375 382.65 471.992C382.96 471.6 383.215 471.158 383.416 470.666C383.617 470.174 383.735 469.659 383.771 469.121H384.906C384.906 469.878 384.783 470.625 384.537 471.363C384.3 472.092 383.958 472.758 383.512 473.359C383.074 473.961 382.559 474.444 381.967 474.809C381.383 475.164 380.741 475.342 380.039 475.342C379.191 475.342 378.467 475.15 377.865 474.768C377.264 474.385 376.771 473.874 376.389 473.236C376.015 472.598 375.737 471.887 375.555 471.104C375.372 470.311 375.281 469.508 375.281 468.697C375.281 467.749 375.391 466.861 375.609 466.031C375.828 465.202 376.152 464.473 376.58 463.844C377.018 463.206 377.564 462.709 378.221 462.354C378.877 461.998 379.643 461.82 380.518 461.82C381.493 461.82 382.322 462.048 383.006 462.504C383.689 462.96 384.241 463.57 384.66 464.336C385.079 465.102 385.385 465.963 385.576 466.92C385.768 467.877 385.863 468.861 385.863 469.873V470.789C385.863 471.819 385.813 472.867 385.713 473.934C385.622 474.991 385.426 476.003 385.125 476.969C384.833 477.935 384.396 478.801 383.812 479.566C383.229 480.323 382.45 480.924 381.475 481.371C380.508 481.809 379.296 482.027 377.838 482.027H377.66L377.646 479.881ZM397.539 462.066H397.717V464.213H397.539C396.391 464.213 395.447 464.432 394.709 464.869C393.98 465.298 393.41 465.876 393 466.605C392.599 467.326 392.321 468.137 392.166 469.039C392.011 469.941 391.934 470.857 391.934 471.787V474.713C391.934 475.597 392.016 476.381 392.18 477.064C392.353 477.739 392.576 478.309 392.85 478.773C393.132 479.238 393.447 479.589 393.793 479.826C394.148 480.063 394.508 480.182 394.873 480.182C395.338 480.182 395.748 480.072 396.104 479.854C396.468 479.626 396.769 479.311 397.006 478.91C397.252 478.5 397.439 478.017 397.566 477.461C397.694 476.905 397.758 476.294 397.758 475.629C397.758 475.036 397.699 474.467 397.58 473.92C397.471 473.364 397.302 472.872 397.074 472.443C396.846 472.006 396.555 471.664 396.199 471.418C395.853 471.163 395.438 471.035 394.955 471.035C394.408 471.035 393.898 471.208 393.424 471.555C392.959 471.892 392.576 472.339 392.275 472.895C391.975 473.441 391.797 474.038 391.742 474.686L390.498 474.672C390.626 473.651 390.84 472.781 391.141 472.061C391.441 471.331 391.806 470.739 392.234 470.283C392.672 469.818 393.155 469.481 393.684 469.271C394.212 469.053 394.768 468.943 395.352 468.943C396.199 468.943 396.924 469.13 397.525 469.504C398.136 469.878 398.633 470.379 399.016 471.008C399.408 471.628 399.695 472.329 399.877 473.113C400.059 473.888 400.15 474.686 400.15 475.506C400.15 476.445 400.036 477.324 399.809 478.145C399.59 478.965 399.262 479.685 398.824 480.305C398.387 480.924 397.835 481.408 397.17 481.754C396.514 482.1 395.748 482.273 394.873 482.273C393.943 482.273 393.141 482.055 392.467 481.617C391.792 481.171 391.232 480.578 390.785 479.84C390.348 479.102 390.024 478.281 389.814 477.379C389.605 476.477 389.5 475.561 389.5 474.631V473.441C389.5 472.038 389.6 470.661 389.801 469.312C390.001 467.964 390.38 466.742 390.936 465.648C391.501 464.555 392.312 463.684 393.369 463.037C394.436 462.39 395.826 462.066 397.539 462.066ZM414.123 462.094V463.516L407.273 482H404.73L411.58 464.172H402.707V462.094H414.123Z" fill="#251476"/>
<defs>
<filter id="filter0_di_14_13" x="151.753" y="65.6364" width="252.687" height="204.364" filterUnits="userSpaceOnUse" color-interpolation-filters="sRGB">
<feFlood flood-opacity="0" result="BackgroundImageFix"/>
<feColorMatrix in="SourceAlpha" type="matrix" values="0 0 0 0 0 0 0 0 0 0 0 0 0 0 0 0 0 0 127 0" result="hardAlpha"/>
<feOffset dx="-1" dy="4"/>
<feGaussianBlur stdDeviation="2"/>
<feComposite in2="hardAlpha" operator="out"/>
<feColorMatrix type="matrix" values="0 0 0 0 0 0 0 0 0 0 0 0 0 0 0 0 0 0 0.25 0"/>
<feBlend mode="normal" in2="BackgroundImageFix" result="effect1_dropShadow_14_13"/>
<feBlend mode="normal" in="SourceGraphic" in2="effect1_dropShadow_14_13" result="shape"/>
<feColorMatrix in="SourceAlpha" type="matrix" values="0 0 0 0 0 0 0 0 0 0 0 0 0 0 0 0 0 0 127 0" result="hardAlpha"/>
<feOffset dy="4"/>
<feGaussianBlur stdDeviation="2"/>
<feComposite in2="hardAlpha" operator="arithmetic" k2="-1" k3="1"/>
<feColorMatrix type="matrix" values="0 0 0 0 0 0 0 0 0 0 0 0 0 0 0 0 0 0 0.25 0"/>
<feBlend mode="normal" in2="shape" result="effect2_innerShadow_14_13"/>
</filter>
<filter id="filter1_di_14_13" x="151.753" y="171.636" width="252.687" height="204.364" filterUnits="userSpaceOnUse" color-interpolation-filters="sRGB">
<feFlood flood-opacity="0" result="BackgroundImageFix"/>
<feColorMatrix in="SourceAlpha" type="matrix" values="0 0 0 0 0 0 0 0 0 0 0 0 0 0 0 0 0 0 127 0" result="hardAlpha"/>
<feOffset dx="-1" dy="4"/>
<feGaussianBlur stdDeviation="2"/>
<feComposite in2="hardAlpha" operator="out"/>
<feColorMatrix type="matrix" values="0 0 0 0 0 0 0 0 0 0 0 0 0 0 0 0 0 0 0.25 0"/>
<feBlend mode="normal" in2="BackgroundImageFix" result="effect1_dropShadow_14_13"/>
<feBlend mode="normal" in="SourceGraphic" in2="effect1_dropShadow_14_13" result="shape"/>
<feColorMatrix in="SourceAlpha" type="matrix" values="0 0 0 0 0 0 0 0 0 0 0 0 0 0 0 0 0 0 127 0" result="hardAlpha"/>
<feOffset dy="4"/>
<feGaussianBlur stdDeviation="2"/>
<feComposite in2="hardAlpha" operator="arithmetic" k2="-1" k3="1"/>
<feColorMatrix type="matrix" values="0 0 0 0 0 0 0 0 0 0 0 0 0 0 0 0 0 0 0.25 0"/>
<feBlend mode="normal" in2="shape" result="effect2_innerShadow_14_13"/>
</filter>
<filter id="filter2_di_14_13" x="179" y="163" width="198.045" height="16.3569" filterUnits="userSpaceOnUse" color-interpolation-filters="sRGB">
<feFlood flood-opacity="0" result="BackgroundImageFix"/>
<feColorMatrix in="SourceAlpha" type="matrix" values="0 0 0 0 0 0 0 0 0 0 0 0 0 0 0 0 0 0 127 0" result="hardAlpha"/>
<feOffset dx="-1" dy="4"/>
<feGaussianBlur stdDeviation="2"/>
<feComposite in2="hardAlpha" operator="out"/>
<feColorMatrix type="matrix" values="0 0 0 0 0 0 0 0 0 0 0 0 0 0 0 0 0 0 0.25 0"/>
<feBlend mode="normal" in2="BackgroundImageFix" result="effect1_dropShadow_14_13"/>
<feBlend mode="normal" in="SourceGraphic" in2="effect1_dropShadow_14_13" result="shape"/>
<feColorMatrix in="SourceAlpha" type="matrix" values="0 0 0 0 0 0 0 0 0 0 0 0 0 0 0 0 0 0 127 0" result="hardAlpha"/>
<feOffset dy="4"/>
<feGaussianBlur stdDeviation="2"/>
<feComposite in2="hardAlpha" operator="arithmetic" k2="-1" k3="1"/>
<feColorMatrix type="matrix" values="0 0 0 0 0 0 0 0 0 0 0 0 0 0 0 0 0 0 0.25 0"/>
<feBlend mode="normal" in2="shape" result="effect2_innerShadow_14_13"/>
</filter>
<filter id="filter3_d_14_13" x="75.296" y="392.544" width="408.127" height="48.176" filterUnits="userSpaceOnUse" color-interpolation-filters="sRGB">
<feFlood flood-opacity="0" result="BackgroundImageFix"/>
<feColorMatrix in="SourceAlpha" type="matrix" values="0 0 0 0 0 0 0 0 0 0 0 0 0 0 0 0 0 0 127 0" result="hardAlpha"/>
<feOffset dy="3"/>
<feGaussianBlur stdDeviation="2"/>
<feComposite in2="hardAlpha" operator="out"/>
<feColorMatrix type="matrix" values="0 0 0 0 0 0 0 0 0 0 0 0 0 0 0 0 0 0 0.25 0"/>
<feBlend mode="normal" in2="BackgroundImageFix" result="effect1_dropShadow_14_13"/>
<feBlend mode="normal" in="SourceGraphic" in2="effect1_dropShadow_14_13" result="shape"/>
</filter>
<linearGradient id="paint0_linear_14_13" x1="279.5" y1="106" x2="279.5" y2="433" gradientUnits="userSpaceOnUse">
<stop offset="0.424" stop-color="#251476"/>
<stop offset="1" stop-color="#2500DD"/>
</linearGradient>
<linearGradient id="paint1_linear_14_13" x1="279.5" y1="4" x2="279.5" y2="79" gradientUnits="userSpaceOnUse">
<stop stop-color="#251476"/>
<stop offset="0.634" stop-color="#341DA6"/>
</linearGradient>
</defs>
</svg>
