<svg width="276" height="77" viewBox="0 0 276 77" fill="none" xmlns="http://www.w3.org/2000/svg">
<g filter="url(#filter0_i_86_202)">
<rect width="276" height="77" fill="#0C03B9"/>
<path d="M58.7667 26.574V47.178H68.3887L68.0147 50H55.5367V26.574H58.7667ZM84.969 40.514C84.969 41.0353 84.9464 41.568 84.901 42.112H73.477C73.613 44.084 74.1117 45.5347 74.973 46.464C75.8344 47.3933 76.945 47.858 78.305 47.858C79.1664 47.858 79.9597 47.7333 80.685 47.484C81.4104 47.2347 82.1697 46.838 82.963 46.294L84.323 48.164C82.419 49.66 80.3337 50.408 78.067 50.408C75.5737 50.408 73.6244 49.592 72.219 47.96C70.8364 46.328 70.145 44.084 70.145 41.228C70.145 39.3693 70.4397 37.726 71.029 36.298C71.641 34.8473 72.5024 33.714 73.613 32.898C74.7464 32.082 76.0724 31.674 77.591 31.674C79.971 31.674 81.7957 32.456 83.065 34.02C84.3344 35.584 84.969 37.7487 84.969 40.514ZM81.875 39.596C81.875 37.828 81.5237 36.4793 80.821 35.55C80.1184 34.6207 79.0644 34.156 77.659 34.156C75.0977 34.156 73.7037 36.0373 73.477 39.8H81.875V39.596ZM101.702 45.818C101.702 46.5433 101.827 47.0873 102.076 47.45C102.326 47.79 102.7 48.0507 103.198 48.232L102.484 50.408C101.555 50.2947 100.807 50.034 100.24 49.626C99.6737 49.218 99.2543 48.5833 98.9823 47.722C97.781 49.5127 96.0017 50.408 93.6443 50.408C91.8763 50.408 90.4823 49.9093 89.4623 48.912C88.4423 47.9147 87.9323 46.6113 87.9323 45.002C87.9323 43.098 88.6123 41.636 89.9723 40.616C91.355 39.596 93.3043 39.086 95.8203 39.086H98.5743V37.76C98.5743 36.4907 98.2683 35.584 97.6563 35.04C97.0443 34.496 96.1037 34.224 94.8343 34.224C93.5197 34.224 91.9103 34.5413 90.0063 35.176L89.2243 32.898C91.4457 32.082 93.5083 31.674 95.4123 31.674C97.5203 31.674 99.0957 32.1953 100.138 33.238C101.181 34.258 101.702 35.72 101.702 37.624V45.818ZM94.3583 48.062C96.149 48.062 97.5543 47.1327 98.5743 45.274V41.16H96.2283C92.919 41.16 91.2643 42.384 91.2643 44.832C91.2643 45.8973 91.525 46.702 92.0463 47.246C92.5677 47.79 93.3383 48.062 94.3583 48.062ZM115.912 31.674C116.547 31.674 117.136 31.742 117.68 31.878L117.102 34.938C116.558 34.802 116.037 34.734 115.538 34.734C114.428 34.734 113.532 35.142 112.852 35.958C112.172 36.774 111.64 38.0433 111.254 39.766V50H108.126V32.082H110.812L111.118 35.72C111.594 34.3827 112.24 33.374 113.056 32.694C113.872 32.014 114.824 31.674 115.912 31.674ZM129.674 31.674C131.306 31.674 132.575 32.1613 133.482 33.136C134.411 34.1107 134.876 35.448 134.876 37.148V50H131.748V37.59C131.748 36.3207 131.51 35.4253 131.034 34.904C130.558 34.3827 129.855 34.122 128.926 34.122C127.974 34.122 127.135 34.394 126.41 34.938C125.684 35.482 125.004 36.264 124.37 37.284V50H121.242V32.082H123.928L124.2 34.734C124.834 33.782 125.616 33.034 126.546 32.49C127.498 31.946 128.54 31.674 129.674 31.674ZM171.276 50H168.148L167.332 39.426C166.992 35.278 166.799 32.0933 166.754 29.872L161.688 47.348H158.662L153.324 29.838C153.324 32.6713 153.176 35.9467 152.882 39.664L152.1 50H149.04L150.978 26.574H155.33L160.26 43.608L164.952 26.574H169.338L171.276 50ZM183.357 31.674C185.873 31.674 187.822 32.5127 189.205 34.19C190.61 35.8673 191.313 38.1453 191.313 41.024C191.313 42.8827 190.995 44.526 190.361 45.954C189.726 47.3593 188.808 48.4587 187.607 49.252C186.405 50.0227 184.977 50.408 183.323 50.408C180.807 50.408 178.846 49.5693 177.441 47.892C176.035 46.2147 175.333 43.9367 175.333 41.058C175.333 39.1993 175.65 37.5673 176.285 36.162C176.919 34.734 177.837 33.6347 179.039 32.864C180.24 32.0707 181.679 31.674 183.357 31.674ZM183.357 34.19C180.251 34.19 178.699 36.4793 178.699 41.058C178.699 45.614 180.24 47.892 183.323 47.892C186.405 47.892 187.947 45.6027 187.947 41.024C187.947 36.468 186.417 34.19 183.357 34.19ZM204.266 31.674C204.901 31.674 205.49 31.742 206.034 31.878L205.456 34.938C204.912 34.802 204.391 34.734 203.892 34.734C202.781 34.734 201.886 35.142 201.206 35.958C200.526 36.774 199.993 38.0433 199.608 39.766V50H196.48V32.082H199.166L199.472 35.72C199.948 34.3827 200.594 33.374 201.41 32.694C202.226 32.014 203.178 31.674 204.266 31.674ZM222.098 40.514C222.098 41.0353 222.075 41.568 222.03 42.112H210.606C210.742 44.084 211.241 45.5347 212.102 46.464C212.963 47.3933 214.074 47.858 215.434 47.858C216.295 47.858 217.089 47.7333 217.814 47.484C218.539 47.2347 219.299 46.838 220.092 46.294L221.452 48.164C219.548 49.66 217.463 50.408 215.196 50.408C212.703 50.408 210.753 49.592 209.348 47.96C207.965 46.328 207.274 44.084 207.274 41.228C207.274 39.3693 207.569 37.726 208.158 36.298C208.77 34.8473 209.631 33.714 210.742 32.898C211.875 32.082 213.201 31.674 214.72 31.674C217.1 31.674 218.925 32.456 220.194 34.02C221.463 35.584 222.098 37.7487 222.098 40.514ZM219.004 39.596C219.004 37.828 218.653 36.4793 217.95 35.55C217.247 34.6207 216.193 34.156 214.788 34.156C212.227 34.156 210.833 36.0373 210.606 39.8H219.004V39.596Z" fill="white"/>
</g>
<defs>
<filter id="filter0_i_86_202" x="0" y="0" width="278" height="81" filterUnits="userSpaceOnUse" color-interpolation-filters="sRGB">
<feFlood flood-opacity="0" result="BackgroundImageFix"/>
<feBlend mode="normal" in="SourceGraphic" in2="BackgroundImageFix" result="shape"/>
<feColorMatrix in="SourceAlpha" type="matrix" values="0 0 0 0 0 0 0 0 0 0 0 0 0 0 0 0 0 0 127 0" result="hardAlpha"/>
<feOffset dx="2" dy="4"/>
<feGaussianBlur stdDeviation="2"/>
<feComposite in2="hardAlpha" operator="arithmetic" k2="-1" k3="1"/>
<feColorMatrix type="matrix" values="0 0 0 0 0 0 0 0 0 0 0 0 0 0 0 0 0 0 0.25 0"/>
<feBlend mode="normal" in2="shape" result="effect1_innerShadow_86_202"/>
</filter>
</defs>
</svg>
