<svg width="353" height="79" viewBox="0 0 353 79" fill="none" xmlns="http://www.w3.org/2000/svg">
<path d="M140.837 61.1184L137.402 70.7511H135.781L139.827 60.1823H140.845L140.837 61.1184ZM143.615 70.7511L140.181 61.1184L140.164 60.1823H141.19L145.237 70.7511H143.615ZM143.615 66.8386V67.9854H137.558V66.8386H143.615ZM149.81 70.7511H147.671L147.688 69.6117H149.81C150.564 69.6117 151.176 69.4907 151.648 69.2486C152.12 69.0017 152.468 68.6385 152.692 68.1596C152.916 67.6759 153.029 67.0781 153.029 66.3666V64.5594C153.029 63.9982 152.966 63.5139 152.839 63.1078C152.713 62.7011 152.523 62.3671 152.27 62.1059C152.016 61.8447 151.697 61.6509 151.312 61.5251C150.927 61.3944 150.475 61.3292 149.957 61.3292H147.627V60.1823H149.957C150.665 60.1823 151.303 60.2763 151.873 60.4653C152.442 60.649 152.931 60.9272 153.339 61.3C153.748 61.6679 154.058 62.125 154.271 62.6719C154.49 63.2187 154.599 63.8527 154.599 64.5737V66.3666C154.599 67.0877 154.49 67.7216 154.271 68.2684C154.058 68.8153 153.745 69.2724 153.33 69.6404C152.916 70.0083 152.413 70.2865 151.821 70.475C151.234 70.6592 150.564 70.7511 149.81 70.7511ZM148.55 60.1823V70.7511H146.963V60.1823H148.55ZM160.32 69.1471L163.34 60.1823H165.065L161.166 70.7511H159.949L160.32 69.1471ZM157.611 60.1823L160.605 69.1471L161.002 70.7511H159.785L155.885 60.1823H157.611ZM174.824 64.5519V66.3884C174.824 67.1338 174.726 67.7895 174.531 68.3555C174.341 68.9172 174.062 69.3866 173.694 69.7641C173.326 70.1416 172.883 70.4246 172.365 70.613C171.847 70.8021 171.264 70.896 170.613 70.896C169.987 70.896 169.414 70.8021 168.897 70.613C168.379 70.4246 167.933 70.1416 167.559 69.7641C167.185 69.3866 166.895 68.9172 166.688 68.3555C166.487 67.7895 166.386 67.1338 166.386 66.3884V64.5519C166.386 63.807 166.487 63.1534 166.688 62.5922C166.889 62.0257 167.176 61.5543 167.551 61.1768C167.924 60.7993 168.37 60.5163 168.888 60.3273C169.406 60.134 169.978 60.0369 170.605 60.0369C171.255 60.0369 171.839 60.134 172.357 60.3273C172.88 60.5163 173.323 60.7993 173.685 61.1768C174.054 61.5543 174.335 62.0257 174.531 62.5922C174.726 63.1534 174.824 63.807 174.824 64.5519ZM173.254 66.3884V64.5376C173.254 63.9567 173.197 63.4582 173.081 63.0419C172.966 62.6214 172.796 62.2774 172.572 62.0114C172.348 61.7454 172.072 61.5495 171.744 61.4237C171.416 61.2931 171.036 61.2272 170.605 61.2272C170.196 61.2272 169.828 61.2931 169.501 61.4237C169.178 61.5495 168.903 61.7454 168.672 62.0114C168.442 62.2774 168.264 62.6214 168.137 63.0419C168.016 63.4582 167.956 63.9567 167.956 64.5376V66.3884C167.956 66.974 168.016 67.4774 168.137 67.8984C168.264 68.3146 168.442 68.6581 168.672 68.9289C168.908 69.1954 169.19 69.3935 169.518 69.5241C169.845 69.6499 170.211 69.7131 170.613 69.7131C171.045 69.7131 171.424 69.6499 171.753 69.5241C172.086 69.3935 172.362 69.1954 172.581 68.9289C172.805 68.6581 172.972 68.3146 173.081 67.8984C173.197 67.4774 173.254 66.974 173.254 66.3884ZM183.573 67.3903H185.161C185.121 68.1161 184.945 68.7426 184.635 69.2703C184.33 69.7928 183.884 70.1947 183.298 70.475C182.716 70.7559 181.989 70.896 181.115 70.896C180.487 70.896 179.921 70.792 179.415 70.5844C178.908 70.3763 178.474 70.0784 178.112 69.6913C177.755 69.2995 177.482 68.8302 177.292 68.2833C177.102 67.7364 177.007 67.1216 177.007 66.4394V64.4866C177.007 63.8091 177.102 63.197 177.292 62.6501C177.488 62.1033 177.766 61.6366 178.129 61.2495C178.497 60.8572 178.943 60.5572 179.467 60.349C179.996 60.1409 180.594 60.0369 181.261 60.0369C182.078 60.0369 182.768 60.1749 183.332 60.451C183.902 60.7218 184.339 61.121 184.644 61.6482C184.954 62.1712 185.127 62.8126 185.161 63.5723H183.573C183.534 63.0154 183.43 62.563 183.263 62.2147C183.096 61.8617 182.849 61.6026 182.521 61.438C182.199 61.2686 181.779 61.1837 181.261 61.1837C180.801 61.1837 180.401 61.2612 180.062 61.4162C179.728 61.5713 179.452 61.7937 179.233 62.0841C179.021 62.3698 178.86 62.7154 178.75 63.1221C178.647 63.5235 178.595 63.9737 178.595 64.4723V66.4394C178.595 66.9039 178.638 67.3372 178.725 67.7386C178.817 68.1405 178.961 68.4936 179.156 68.7983C179.357 69.0983 179.619 69.333 179.941 69.5023C180.263 69.6717 180.654 69.7567 181.115 69.7567C181.695 69.7567 182.156 69.677 182.495 69.5172C182.834 69.3574 183.085 69.1031 183.246 68.7548C183.412 68.4065 183.522 67.9515 183.573 67.3903ZM191.382 61.1184L187.948 70.7511H186.326L190.373 60.1823H191.391L191.382 61.1184ZM194.161 70.7511L190.726 61.1184L190.709 60.1823H191.736L195.783 70.7511H194.161ZM194.161 66.8386V67.9854H188.103V66.8386H194.161ZM200.425 60.1823V70.7511H198.854V60.1823H200.425ZM203.73 60.1823V61.3292H195.559V60.1823H203.73ZM212.341 69.6117V70.7511H206.888V69.6117H212.341ZM207.173 60.1823V70.7511H205.585V60.1823H207.173ZM211.607 64.7261V65.866H206.888V64.7261H211.607ZM212.255 60.1823V61.3292H206.888V60.1823H212.255ZM219.865 68.08C219.865 67.8331 219.831 67.6154 219.761 67.4264C219.692 67.2331 219.571 67.059 219.399 66.9039C219.227 66.7489 218.985 66.6013 218.675 66.4612C218.363 66.321 217.97 66.1782 217.492 66.0327C216.974 65.8782 216.505 65.7062 216.086 65.5177C215.666 65.3239 215.306 65.1036 215.007 64.8567C214.714 64.6103 214.486 64.3268 214.326 64.0077C214.165 63.6881 214.084 63.3228 214.084 62.9113C214.084 62.5004 214.167 62.1202 214.334 61.772C214.507 61.4237 214.748 61.121 215.059 60.8646C215.375 60.6034 215.755 60.4 216.198 60.2545C216.641 60.1096 217.135 60.0369 217.682 60.0369C218.499 60.0369 219.186 60.1892 219.744 60.4945C220.308 60.7945 220.734 61.189 221.021 61.6774C221.309 62.1617 221.453 62.6793 221.453 63.231H219.865C219.865 62.8343 219.787 62.4834 219.632 62.1786C219.482 61.8686 219.246 61.6265 218.924 61.4523C218.608 61.2734 218.194 61.1837 217.682 61.1837C217.222 61.1837 216.842 61.2591 216.543 61.4088C216.25 61.559 216.031 61.7624 215.888 62.0188C215.749 62.2753 215.68 62.5678 215.68 62.897C215.68 63.1195 215.726 63.3228 215.818 63.5065C215.91 63.686 216.051 63.8527 216.241 64.0077C216.437 64.1622 216.678 64.305 216.966 64.4356C217.259 64.5668 217.604 64.6926 218.001 64.8131C218.616 64.9825 219.143 65.1715 219.58 65.3796C220.018 65.5878 220.374 65.8224 220.65 66.0837C220.926 66.3401 221.128 66.6326 221.254 66.9618C221.386 67.2862 221.453 67.6542 221.453 68.0651C221.453 68.4962 221.366 68.8854 221.194 69.2342C221.027 69.5825 220.782 69.8798 220.461 70.1267C220.138 70.3736 219.75 70.5647 219.296 70.7001C218.841 70.8307 218.329 70.896 217.759 70.896C217.265 70.896 216.779 70.8286 216.302 70.6932C215.829 70.5573 215.401 70.3545 215.016 70.0832C214.63 69.8124 214.322 69.4784 214.093 69.0813C213.862 68.6799 213.747 68.2154 213.747 67.6876H215.335C215.335 68.0508 215.398 68.3629 215.525 68.6242C215.651 68.8806 215.827 69.0935 216.051 69.2629C216.276 69.4322 216.531 69.5581 216.819 69.6404C217.113 69.7179 217.426 69.7567 217.759 69.7567C218.22 69.7567 218.605 69.6887 218.916 69.5533C219.232 69.4179 219.468 69.2241 219.624 68.9725C219.785 68.7208 219.865 68.4235 219.865 68.08ZM233.084 68.08C233.084 67.8331 233.049 67.6154 232.981 67.4264C232.911 67.2331 232.791 67.059 232.618 66.9039C232.445 66.7489 232.204 66.6013 231.893 66.4612C231.583 66.321 231.188 66.1782 230.711 66.0327C230.194 65.8782 229.725 65.7062 229.304 65.5177C228.885 65.3239 228.525 65.1036 228.226 64.8567C227.933 64.6103 227.705 64.3268 227.544 64.0077C227.383 63.6881 227.302 63.3228 227.302 62.9113C227.302 62.5004 227.386 62.1202 227.553 61.772C227.725 61.4237 227.967 61.121 228.278 60.8646C228.594 60.6034 228.974 60.4 229.417 60.2545C229.86 60.1096 230.354 60.0369 230.901 60.0369C231.718 60.0369 232.405 60.1892 232.963 60.4945C233.526 60.7945 233.952 61.189 234.24 61.6774C234.527 62.1617 234.671 62.6793 234.671 63.231H233.084C233.084 62.8343 233.006 62.4834 232.851 62.1786C232.702 61.8686 232.466 61.6265 232.143 61.4523C231.827 61.2734 231.413 61.1837 230.901 61.1837C230.44 61.1837 230.061 61.2591 229.762 61.4088C229.468 61.559 229.25 61.7624 229.106 62.0188C228.968 62.2753 228.899 62.5678 228.899 62.897C228.899 63.1195 228.945 63.3228 229.037 63.5065C229.129 63.686 229.27 63.8527 229.46 64.0077C229.655 64.1622 229.897 64.305 230.185 64.4356C230.478 64.5668 230.823 64.6926 231.22 64.8131C231.836 64.9825 232.362 65.1715 232.799 65.3796C233.236 65.5878 233.593 65.8224 233.869 66.0837C234.145 66.3401 234.346 66.6326 234.473 66.9618C234.605 67.2862 234.671 67.6542 234.671 68.0651C234.671 68.4962 234.585 68.8854 234.413 69.2342C234.246 69.5825 234.001 69.8798 233.679 70.1267C233.357 70.3736 232.969 70.5647 232.514 70.7001C232.06 70.8307 231.548 70.896 230.979 70.896C230.484 70.896 229.998 70.8286 229.52 70.6932C229.049 70.5573 228.62 70.3545 228.235 70.0832C227.849 69.8124 227.542 69.4784 227.311 69.0813C227.082 68.6799 226.966 68.2154 226.966 67.6876H228.554C228.554 68.0508 228.617 68.3629 228.744 68.6242C228.87 68.8806 229.046 69.0935 229.27 69.2629C229.494 69.4322 229.751 69.5581 230.038 69.6404C230.331 69.7179 230.645 69.7567 230.979 69.7567C231.439 69.7567 231.824 69.6887 232.135 69.5533C232.451 69.4179 232.687 69.2241 232.842 68.9725C233.003 68.7208 233.084 68.4235 233.084 68.08ZM238.407 60.1823V70.7511H236.82V60.1823H238.407ZM249.383 60.1823V70.7511H247.786L242.756 62.5991V70.7511H241.169V60.1823H242.756L247.813 68.3555V60.1823H249.383ZM258.417 67.3903H260.005C259.964 68.1161 259.789 68.7426 259.478 69.2703C259.174 69.7928 258.727 70.1947 258.141 70.475C257.56 70.7559 256.832 70.896 255.958 70.896C255.331 70.896 254.764 70.792 254.258 70.5844C253.752 70.3763 253.318 70.0784 252.955 69.6913C252.599 69.2995 252.325 68.8302 252.135 68.2833C251.945 67.7364 251.851 67.1216 251.851 66.4394V64.4866C251.851 63.8091 251.945 63.197 252.135 62.6501C252.331 62.1033 252.61 61.6366 252.972 61.2495C253.341 60.8572 253.786 60.5572 254.31 60.349C254.839 60.1409 255.437 60.0369 256.104 60.0369C256.921 60.0369 257.612 60.1749 258.175 60.451C258.745 60.7218 259.182 61.121 259.487 61.6482C259.798 62.1712 259.97 62.8126 260.005 63.5723H258.417C258.376 63.0154 258.273 62.563 258.106 62.2147C257.94 61.8617 257.692 61.6026 257.364 61.438C257.042 61.2686 256.622 61.1837 256.104 61.1837C255.644 61.1837 255.245 61.2612 254.905 61.4162C254.572 61.5713 254.296 61.7937 254.077 62.0841C253.864 62.3698 253.703 62.7154 253.594 63.1221C253.49 63.5235 253.439 63.9737 253.439 64.4723V66.4394C253.439 66.9039 253.482 67.3372 253.568 67.7386C253.66 68.1405 253.803 68.4936 253.999 68.7983C254.2 69.0983 254.462 69.333 254.784 69.5023C255.107 69.6717 255.498 69.7567 255.958 69.7567C256.539 69.7567 256.999 69.677 257.338 69.5172C257.678 69.3574 257.928 69.1031 258.089 68.7548C258.256 68.4065 258.365 67.9515 258.417 67.3903ZM268.909 69.6117V70.7511H263.456V69.6117H268.909ZM263.741 60.1823V70.7511H262.153V60.1823H263.741ZM268.176 64.7261V65.866H263.456V64.7261H268.176ZM268.823 60.1823V61.3292H263.456V60.1823H268.823ZM279.194 60.1239V70.7511H277.667V61.8012L275.027 62.7882V61.576L278.961 60.1239H279.194ZM284.759 69.626H284.881C285.657 69.626 286.281 69.5172 286.753 69.2995C287.225 69.0813 287.579 68.7888 287.814 68.4208C288.056 68.0534 288.217 67.6393 288.298 67.1795C288.384 66.7149 288.427 66.2387 288.427 65.7497V64.1309C288.427 63.652 288.372 63.2262 288.263 62.8535C288.159 62.4807 288.019 62.1686 287.84 61.9169C287.668 61.6652 287.469 61.4741 287.245 61.3435C287.026 61.2129 286.802 61.1476 286.572 61.1476C286.279 61.1476 286.02 61.2108 285.795 61.3366C285.571 61.4571 285.381 61.6291 285.226 61.8516C285.076 62.0746 284.961 62.3358 284.881 62.6358C284.8 62.9358 284.759 63.2623 284.759 63.6159C284.759 63.9302 284.794 64.2349 284.864 64.5301C284.932 64.8253 285.039 65.0913 285.182 65.3287C285.332 65.566 285.516 65.7545 285.735 65.8952C285.959 66.0306 286.224 66.098 286.528 66.098C286.782 66.098 287.026 66.0401 287.262 65.9238C287.504 65.8028 287.722 65.6409 287.918 65.4375C288.113 65.2294 288.274 64.9947 288.401 64.7335C288.528 64.4723 288.602 64.1988 288.625 63.9132H289.341C289.341 64.3151 289.264 64.7117 289.108 65.1036C288.959 65.4906 288.743 65.8442 288.462 66.1633C288.185 66.4829 287.86 66.7394 287.487 66.9331C287.118 67.1216 286.713 67.2161 286.27 67.2161C285.735 67.2161 285.278 67.1142 284.898 66.9114C284.518 66.708 284.207 66.4367 283.966 66.098C283.73 65.7593 283.555 65.3818 283.44 64.966C283.324 64.545 283.267 64.1187 283.267 63.6881C283.267 63.1848 283.336 62.7133 283.474 62.2726C283.612 61.8325 283.817 61.4454 284.087 61.1115C284.363 60.7727 284.708 60.5089 285.122 60.3204C285.536 60.1314 286.02 60.0369 286.572 60.0369C287.187 60.0369 287.711 60.1579 288.142 60.4C288.573 60.6421 288.922 60.966 289.186 61.3727C289.451 61.7794 289.644 62.2365 289.764 62.7446C289.885 63.2527 289.945 63.7752 289.945 64.3125V64.7988C289.945 65.3457 289.914 65.9021 289.851 66.4686C289.793 67.0298 289.67 67.5671 289.48 68.08C289.295 68.5928 289.019 69.0526 288.651 69.4588C288.283 69.8607 287.791 70.1798 287.176 70.4171C286.566 70.6497 285.801 70.7654 284.881 70.7654H284.768L284.759 69.626ZM297.314 60.1675H297.427V61.3074H297.314C296.59 61.3074 295.994 61.4237 295.528 61.6557C295.068 61.8834 294.708 62.1903 294.45 62.5774C294.196 62.9602 294.021 63.3908 293.923 63.8697C293.825 64.3486 293.777 64.8349 293.777 65.3287V66.8822C293.777 67.3515 293.829 67.7678 293.932 68.1304C294.041 68.4888 294.182 68.7914 294.355 69.0378C294.533 69.2847 294.732 69.471 294.95 69.5968C295.174 69.7227 295.401 69.7859 295.632 69.7859C295.925 69.7859 296.184 69.7275 296.409 69.6117C296.638 69.4907 296.828 69.3234 296.978 69.1105C297.133 68.8928 297.251 68.6364 297.331 68.3412C297.412 68.046 297.452 67.7216 297.452 67.3685C297.452 67.0537 297.415 66.7516 297.34 66.4612C297.271 66.166 297.165 65.9047 297.021 65.677C296.877 65.4449 296.693 65.2634 296.469 65.1328C296.25 64.9974 295.988 64.9294 295.683 64.9294C295.338 64.9294 295.016 65.0213 294.717 65.2055C294.424 65.3844 294.182 65.6217 293.992 65.9169C293.803 66.2068 293.69 66.5238 293.656 66.8678L292.871 66.8604C292.951 66.3183 293.086 65.8564 293.276 65.4741C293.466 65.0866 293.696 64.7722 293.966 64.5301C294.243 64.2833 294.547 64.1043 294.881 63.9928C295.214 63.8771 295.565 63.8187 295.934 63.8187C296.468 63.8187 296.926 63.918 297.305 64.1165C297.691 64.3151 298.005 64.5811 298.246 64.9151C298.494 65.2442 298.675 65.6164 298.79 66.0327C298.905 66.4442 298.962 66.8679 298.962 67.3032C298.962 67.8018 298.89 68.2684 298.747 68.7043C298.609 69.1397 298.402 69.522 298.125 69.8512C297.849 70.1798 297.501 70.4368 297.081 70.6205C296.667 70.8042 296.184 70.896 295.632 70.896C295.045 70.896 294.539 70.7803 294.113 70.5477C293.687 70.3109 293.334 69.9961 293.052 69.6043C292.776 69.2124 292.571 68.7765 292.439 68.2976C292.307 67.8187 292.241 67.3324 292.241 66.8386V66.2068C292.241 65.4619 292.304 64.7308 292.431 64.0146C292.557 63.2989 292.796 62.6501 293.147 62.0693C293.504 61.489 294.015 61.0265 294.682 60.683C295.356 60.3395 296.233 60.1675 297.314 60.1675ZM307.781 60.1823V60.9373L303.457 70.7511H301.853L306.176 61.2856H300.576V60.1823H307.781Z" fill="#0C03B9"/>
<g filter="url(#filter0_d_110_10)">
<path d="M99.7431 45.2672L96.7805 25.0442H101.376L102.827 36.8284L104.671 25.0691H108.268L110.203 36.7535L111.684 25.0442H116.219L113.286 45.2672H108.57L106.484 33.0585L104.52 45.2672H99.7431ZM117.058 45.2672L121.683 25.0442H127.85L132.415 45.2672H127.427L126.61 40.9979H123.013L122.166 45.2672H117.058ZM123.497 38.3264H126.096L124.797 30.437L123.497 38.3264ZM134.887 45.2672V25.0442H141.084C143.221 25.0442 144.883 25.2689 146.072 25.7183C147.262 26.151 148.098 26.8418 148.582 27.7905C149.065 28.7226 149.307 29.9376 149.307 31.4356V38.7758C149.307 40.2905 149.065 41.5305 148.582 42.4959C148.098 43.4446 147.262 44.1437 146.072 44.5931C144.904 45.0425 143.261 45.2672 141.145 45.2672H134.887ZM140.298 42.1713H141.145C141.971 42.1713 142.566 42.0714 142.928 41.8717C143.291 41.672 143.513 41.3724 143.594 40.9729C143.694 40.5734 143.745 40.0741 143.745 39.4749V30.6617C143.745 30.0625 143.684 29.5798 143.563 29.2136C143.463 28.8474 143.231 28.5811 142.868 28.4147C142.505 28.2482 141.921 28.165 141.115 28.165H140.298V42.1713ZM152.691 45.2672V25.0442H158.102V33.2332H161.911V25.0442H167.323V45.2672H161.911V36.429H158.102V45.2672H152.691ZM173.017 45.2672L170.054 25.0442H174.649L176.1 36.8284L177.944 25.0691H181.542L183.476 36.7535L184.958 25.0442H189.492L186.56 45.2672H181.844L179.758 33.0585L177.793 45.2672H173.017ZM190.331 45.2672L194.956 25.0442H201.123L205.688 45.2672H200.7L199.884 40.9979H196.286L195.44 45.2672H190.331ZM196.77 38.3264H199.37L198.07 30.437L196.77 38.3264ZM221.065 45.5668C219.936 45.5668 218.928 45.3754 218.042 44.9925C217.175 44.5931 216.49 44.0355 215.986 43.3198C215.502 42.5874 215.26 41.7219 215.26 40.7232C215.26 39.4416 215.583 38.3181 216.228 37.3527C216.893 36.3874 217.729 35.4719 218.737 34.6064C218.334 34.0072 217.941 33.408 217.558 32.8088C217.175 32.193 216.863 31.5854 216.621 30.9862C216.399 30.3704 216.288 29.7712 216.288 29.1886C216.288 28.3564 216.49 27.6074 216.893 26.9416C217.316 26.2759 217.921 25.7432 218.707 25.3438C219.513 24.9443 220.49 24.7446 221.639 24.7446C222.687 24.7446 223.604 24.9277 224.39 25.2938C225.176 25.6434 225.791 26.1427 226.234 26.7918C226.698 27.441 226.929 28.19 226.929 29.0388C226.929 29.9709 226.698 30.7948 226.234 31.5105C225.791 32.2262 225.247 32.8754 224.602 33.4579C223.977 34.0238 223.372 34.5731 222.788 35.1057L225.66 39.5498C225.841 39.2835 225.992 38.909 226.113 38.4263C226.254 37.927 226.355 37.3943 226.415 36.8284C226.496 36.2625 226.546 35.7632 226.567 35.3304H229.892C229.892 36.3125 229.811 37.178 229.65 37.927C229.509 38.676 229.297 39.3584 229.015 39.9742C228.753 40.5901 228.431 41.1893 228.048 41.7718C228.249 41.9882 228.532 42.1713 228.894 42.3211C229.277 42.4709 229.66 42.5625 230.043 42.5957V45.5668C229.902 45.5834 229.761 45.6001 229.62 45.6167C229.479 45.6333 229.338 45.6417 229.197 45.6417C228.693 45.6417 228.199 45.5501 227.715 45.367C227.252 45.2006 226.829 44.9842 226.446 44.7179C226.063 44.4349 225.73 44.152 225.448 43.869C224.944 44.4017 224.319 44.8178 223.574 45.1174C222.848 45.417 222.012 45.5668 221.065 45.5668ZM221.246 42.8454C221.689 42.8454 222.092 42.7539 222.455 42.5708C222.838 42.371 223.161 42.1131 223.423 41.7968L220.43 37.2279C219.986 37.8105 219.664 38.3764 219.462 38.9256C219.261 39.4583 219.16 39.9992 219.16 40.5485C219.16 40.9812 219.241 41.3724 219.402 41.7219C219.563 42.0714 219.795 42.3461 220.097 42.5458C220.42 42.7455 220.803 42.8454 221.246 42.8454ZM221.397 32.9586C221.679 32.6424 221.951 32.2512 222.213 31.7852C222.475 31.3191 222.687 30.8364 222.848 30.3371C223.03 29.8211 223.12 29.3634 223.12 28.9639C223.12 28.5312 222.979 28.1983 222.697 27.9653C222.415 27.7322 222.082 27.6157 221.699 27.6157C221.276 27.6157 220.934 27.7572 220.672 28.0402C220.41 28.3231 220.279 28.706 220.279 29.1886C220.279 29.8711 220.4 30.5452 220.641 31.2109C220.883 31.8601 221.135 32.4426 221.397 32.9586ZM242.836 45.2672L239.873 25.0442H244.468L245.919 36.8284L247.763 25.0691H251.361L253.295 36.7535L254.777 25.0442H259.311L256.379 45.2672H251.663L249.577 33.0585L247.612 45.2672H242.836ZM260.151 45.2672L264.776 25.0442H270.943L275.508 45.2672H270.52L269.703 40.9979H266.106L265.26 45.2672H260.151ZM266.59 38.3264H269.19L267.89 30.437L266.59 38.3264ZM277.98 45.2672V25.0442H284.177C286.313 25.0442 287.976 25.2689 289.165 25.7183C290.354 26.151 291.19 26.8418 291.674 27.7905C292.158 28.7226 292.4 29.9376 292.4 31.4356V38.7758C292.4 40.2905 292.158 41.5305 291.674 42.4959C291.19 43.4446 290.354 44.1437 289.165 44.5931C287.996 45.0425 286.353 45.2672 284.237 45.2672H277.98ZM283.391 42.1713H284.237C285.064 42.1713 285.658 42.0714 286.021 41.8717C286.384 41.672 286.605 41.3724 286.686 40.9729C286.787 40.5734 286.837 40.0741 286.837 39.4749V30.6617C286.837 30.0625 286.777 29.5798 286.656 29.2136C286.555 28.8474 286.323 28.5811 285.96 28.4147C285.598 28.2482 285.013 28.165 284.207 28.165H283.391V42.1713ZM295.783 45.2672V25.0442H301.195V33.2332H305.004V25.0442H310.415V45.2672H305.004V36.429H301.195V45.2672H295.783ZM316.109 45.2672L313.146 25.0442H317.741L319.193 36.8284L321.037 25.0691H324.634L326.569 36.7535L328.05 25.0442H332.585L329.652 45.2672H324.936L322.85 33.0585L320.885 45.2672H316.109ZM333.423 45.2672L338.049 25.0442H344.216L348.781 45.2672H343.792L342.976 40.9979H339.379L338.532 45.2672H333.423ZM339.863 38.3264H342.462L341.162 30.437L339.863 38.3264Z" fill="#0C03B9"/>
</g>
<g filter="url(#filter1_di_110_10)">
<path d="M20.8701 50.209L5 11.9949H12.1416L24.271 43.1185H24.8376L37.1937 11.9949H45.1289L57.4849 43.1185H58.0516L70.1809 11.9949H77.3225L61.4524 50.209H54.1976L41.3881 19.7572H40.9347L28.1249 50.209H20.8701Z" fill="#0C03B9"/>
</g>
<g filter="url(#filter2_di_110_10)">
<path d="M20.8701 70.8377L5 32.6235H12.1416L24.271 63.7471H24.8376L37.1937 32.6235H45.1289L57.4849 63.7471H58.0516L70.1809 32.6235H77.3225L61.4524 70.8377H54.1976L41.3881 40.3858H40.9347L28.1249 70.8377H20.8701Z" fill="#0C03B9"/>
</g>
<path d="M41.2805 0L48.3199 10.9467H34.2412L41.2805 0Z" fill="#0C03B9"/>
<g filter="url(#filter3_di_110_10)">
<path d="M69.2179 31.624L13.0608 31.8874" stroke="#0C03B9" stroke-width="7"/>
</g>
<defs>
<filter id="filter0_d_110_10" x="92.7805" y="23.7446" width="260" height="28.8971" filterUnits="userSpaceOnUse" color-interpolation-filters="sRGB">
<feFlood flood-opacity="0" result="BackgroundImageFix"/>
<feColorMatrix in="SourceAlpha" type="matrix" values="0 0 0 0 0 0 0 0 0 0 0 0 0 0 0 0 0 0 127 0" result="hardAlpha"/>
<feOffset dy="3"/>
<feGaussianBlur stdDeviation="2"/>
<feComposite in2="hardAlpha" operator="out"/>
<feColorMatrix type="matrix" values="0 0 0 0 0 0 0 0 0 0 0 0 0 0 0 0 0 0 0.25 0"/>
<feBlend mode="normal" in2="BackgroundImageFix" result="effect1_dropShadow_110_10"/>
<feBlend mode="normal" in="SourceGraphic" in2="effect1_dropShadow_110_10" result="shape"/>
</filter>
<filter id="filter1_di_110_10" x="0" y="11.9949" width="80.3225" height="46.2142" filterUnits="userSpaceOnUse" color-interpolation-filters="sRGB">
<feFlood flood-opacity="0" result="BackgroundImageFix"/>
<feColorMatrix in="SourceAlpha" type="matrix" values="0 0 0 0 0 0 0 0 0 0 0 0 0 0 0 0 0 0 127 0" result="hardAlpha"/>
<feOffset dx="-1" dy="4"/>
<feGaussianBlur stdDeviation="2"/>
<feComposite in2="hardAlpha" operator="out"/>
<feColorMatrix type="matrix" values="0 0 0 0 0 0 0 0 0 0 0 0 0 0 0 0 0 0 0.25 0"/>
<feBlend mode="normal" in2="BackgroundImageFix" result="effect1_dropShadow_110_10"/>
<feBlend mode="normal" in="SourceGraphic" in2="effect1_dropShadow_110_10" result="shape"/>
<feColorMatrix in="SourceAlpha" type="matrix" values="0 0 0 0 0 0 0 0 0 0 0 0 0 0 0 0 0 0 127 0" result="hardAlpha"/>
<feOffset dy="4"/>
<feGaussianBlur stdDeviation="2"/>
<feComposite in2="hardAlpha" operator="arithmetic" k2="-1" k3="1"/>
<feColorMatrix type="matrix" values="0 0 0 0 0 0 0 0 0 0 0 0 0 0 0 0 0 0 0.25 0"/>
<feBlend mode="normal" in2="shape" result="effect2_innerShadow_110_10"/>
</filter>
<filter id="filter2_di_110_10" x="0" y="32.6235" width="80.3225" height="46.2142" filterUnits="userSpaceOnUse" color-interpolation-filters="sRGB">
<feFlood flood-opacity="0" result="BackgroundImageFix"/>
<feColorMatrix in="SourceAlpha" type="matrix" values="0 0 0 0 0 0 0 0 0 0 0 0 0 0 0 0 0 0 127 0" result="hardAlpha"/>
<feOffset dx="-1" dy="4"/>
<feGaussianBlur stdDeviation="2"/>
<feComposite in2="hardAlpha" operator="out"/>
<feColorMatrix type="matrix" values="0 0 0 0 0 0 0 0 0 0 0 0 0 0 0 0 0 0 0.25 0"/>
<feBlend mode="normal" in2="BackgroundImageFix" result="effect1_dropShadow_110_10"/>
<feBlend mode="normal" in="SourceGraphic" in2="effect1_dropShadow_110_10" result="shape"/>
<feColorMatrix in="SourceAlpha" type="matrix" values="0 0 0 0 0 0 0 0 0 0 0 0 0 0 0 0 0 0 127 0" result="hardAlpha"/>
<feOffset dy="4"/>
<feGaussianBlur stdDeviation="2"/>
<feComposite in2="hardAlpha" operator="arithmetic" k2="-1" k3="1"/>
<feColorMatrix type="matrix" values="0 0 0 0 0 0 0 0 0 0 0 0 0 0 0 0 0 0 0.25 0"/>
<feBlend mode="normal" in2="shape" result="effect2_innerShadow_110_10"/>
</filter>
<filter id="filter3_di_110_10" x="8.04443" y="28.1241" width="64.1899" height="15.2633" filterUnits="userSpaceOnUse" color-interpolation-filters="sRGB">
<feFlood flood-opacity="0" result="BackgroundImageFix"/>
<feColorMatrix in="SourceAlpha" type="matrix" values="0 0 0 0 0 0 0 0 0 0 0 0 0 0 0 0 0 0 127 0" result="hardAlpha"/>
<feOffset dx="-1" dy="4"/>
<feGaussianBlur stdDeviation="2"/>
<feComposite in2="hardAlpha" operator="out"/>
<feColorMatrix type="matrix" values="0 0 0 0 0 0 0 0 0 0 0 0 0 0 0 0 0 0 0.25 0"/>
<feBlend mode="normal" in2="BackgroundImageFix" result="effect1_dropShadow_110_10"/>
<feBlend mode="normal" in="SourceGraphic" in2="effect1_dropShadow_110_10" result="shape"/>
<feColorMatrix in="SourceAlpha" type="matrix" values="0 0 0 0 0 0 0 0 0 0 0 0 0 0 0 0 0 0 127 0" result="hardAlpha"/>
<feOffset dy="4"/>
<feGaussianBlur stdDeviation="2"/>
<feComposite in2="hardAlpha" operator="arithmetic" k2="-1" k3="1"/>
<feColorMatrix type="matrix" values="0 0 0 0 0 0 0 0 0 0 0 0 0 0 0 0 0 0 0.25 0"/>
<feBlend mode="normal" in2="shape" result="effect2_innerShadow_110_10"/>
</filter>
</defs>
</svg>
