<svg width="269" height="77" viewBox="0 0 269 77" fill="none" xmlns="http://www.w3.org/2000/svg">
<g filter="url(#filter0_i_86_179)">
<rect x="1.5" y="1.5" width="266" height="74" stroke="#0C03B9" stroke-width="3"/>
<path d="M36.7913 26.574C39.6926 26.574 41.9366 27.186 43.5233 28.41C45.11 29.6113 45.9033 31.4133 45.9033 33.816C45.9033 36.3773 45.076 38.2813 43.4213 39.528C41.7666 40.7747 39.568 41.398 36.8253 41.398H33.8673V50H30.6373V26.574H36.7913ZM36.6893 38.848C38.5706 38.848 39.9986 38.4853 40.9733 37.76C41.9706 37.0347 42.4693 35.7313 42.4693 33.85C42.4693 32.1727 41.9706 30.96 40.9733 30.212C39.9986 29.464 38.5933 29.09 36.7573 29.09H33.8673V38.848H36.6893ZM57.3451 31.674C57.9798 31.674 58.5691 31.742 59.1131 31.878L58.5351 34.938C57.9911 34.802 57.4698 34.734 56.9711 34.734C55.8604 34.734 54.9651 35.142 54.2851 35.958C53.6051 36.774 53.0724 38.0433 52.6871 39.766V50H49.5591V32.082H52.2451L52.5511 35.72C53.0271 34.3827 53.6731 33.374 54.4891 32.694C55.3051 32.014 56.2571 31.674 57.3451 31.674ZM73.549 45.818C73.549 46.5433 73.6737 47.0873 73.923 47.45C74.1724 47.79 74.5464 48.0507 75.045 48.232L74.331 50.408C73.4017 50.2947 72.6537 50.034 72.087 49.626C71.5204 49.218 71.101 48.5833 70.829 47.722C69.6277 49.5127 67.8484 50.408 65.491 50.408C63.723 50.408 62.329 49.9093 61.309 48.912C60.289 47.9147 59.779 46.6113 59.779 45.002C59.779 43.098 60.459 41.636 61.819 40.616C63.2017 39.596 65.151 39.086 67.667 39.086H70.421V37.76C70.421 36.4907 70.115 35.584 69.503 35.04C68.891 34.496 67.9504 34.224 66.681 34.224C65.3664 34.224 63.757 34.5413 61.853 35.176L61.071 32.898C63.2924 32.082 65.355 31.674 67.259 31.674C69.367 31.674 70.9424 32.1953 71.985 33.238C73.0277 34.258 73.549 35.72 73.549 37.624V45.818ZM66.205 48.062C67.9957 48.062 69.401 47.1327 70.421 45.274V41.16H68.075C64.7657 41.16 63.111 42.384 63.111 44.832C63.111 45.8973 63.3717 46.702 63.893 47.246C64.4144 47.79 65.185 48.062 66.205 48.062ZM86.5012 31.674C87.5665 31.674 88.5412 31.8327 89.4252 32.15C90.3092 32.4447 91.1592 32.932 91.9752 33.612L90.4792 35.584C89.8445 35.1307 89.2212 34.802 88.6092 34.598C88.0198 34.3713 87.3625 34.258 86.6372 34.258C85.1865 34.258 84.0532 34.836 83.2372 35.992C82.4438 37.148 82.0472 38.8593 82.0472 41.126C82.0472 43.3927 82.4438 45.07 83.2372 46.158C84.0305 47.2233 85.1638 47.756 86.6372 47.756C87.3398 47.756 87.9858 47.654 88.5752 47.45C89.1645 47.2233 89.8218 46.872 90.5472 46.396L91.9752 48.436C90.3432 49.7507 88.5185 50.408 86.5012 50.408C84.0758 50.408 82.1605 49.592 80.7552 47.96C79.3725 46.328 78.6812 44.0727 78.6812 41.194C78.6812 39.29 78.9985 37.624 79.6332 36.196C80.2678 34.768 81.1632 33.6573 82.3192 32.864C83.4978 32.0707 84.8918 31.674 86.5012 31.674ZM105.253 49.184C104.075 50 102.737 50.408 101.241 50.408C99.7228 50.408 98.5328 49.9773 97.6715 49.116C96.8328 48.232 96.4135 46.9627 96.4135 45.308V34.496H93.2855V32.082H96.4135V28.036L99.5415 27.662V32.082H103.791L103.451 34.496H99.5415V45.172C99.5415 46.1013 99.7002 46.7813 100.017 47.212C100.357 47.62 100.913 47.824 101.683 47.824C102.386 47.824 103.179 47.586 104.063 47.11L105.253 49.184ZM111.623 32.082V50H108.495V32.082H111.623ZM110.025 23.48C110.682 23.48 111.215 23.684 111.623 24.092C112.031 24.5 112.235 25.01 112.235 25.622C112.235 26.234 112.031 26.744 111.623 27.152C111.215 27.5373 110.682 27.73 110.025 27.73C109.39 27.73 108.869 27.5373 108.461 27.152C108.053 26.744 107.849 26.234 107.849 25.622C107.849 25.01 108.053 24.5 108.461 24.092C108.869 23.684 109.39 23.48 110.025 23.48ZM124.618 31.674C125.684 31.674 126.658 31.8327 127.542 32.15C128.426 32.4447 129.276 32.932 130.092 33.612L128.596 35.584C127.962 35.1307 127.338 34.802 126.726 34.598C126.137 34.3713 125.48 34.258 124.754 34.258C123.304 34.258 122.17 34.836 121.354 35.992C120.561 37.148 120.164 38.8593 120.164 41.126C120.164 43.3927 120.561 45.07 121.354 46.158C122.148 47.2233 123.281 47.756 124.754 47.756C125.457 47.756 126.103 47.654 126.692 47.45C127.282 47.2233 127.939 46.872 128.664 46.396L130.092 48.436C128.46 49.7507 126.636 50.408 124.618 50.408C122.193 50.408 120.278 49.592 118.872 47.96C117.49 46.328 116.798 44.0727 116.798 41.194C116.798 39.29 117.116 37.624 117.75 36.196C118.385 34.768 119.28 33.6573 120.436 32.864C121.615 32.0707 123.009 31.674 124.618 31.674ZM147.195 40.514C147.195 41.0353 147.172 41.568 147.127 42.112H135.703C135.839 44.084 136.337 45.5347 137.199 46.464C138.06 47.3933 139.171 47.858 140.531 47.858C141.392 47.858 142.185 47.7333 142.911 47.484C143.636 47.2347 144.395 46.838 145.189 46.294L146.549 48.164C144.645 49.66 142.559 50.408 140.293 50.408C137.799 50.408 135.85 49.592 134.445 47.96C133.062 46.328 132.371 44.084 132.371 41.228C132.371 39.3693 132.665 37.726 133.255 36.298C133.867 34.8473 134.728 33.714 135.839 32.898C136.972 32.082 138.298 31.674 139.817 31.674C142.197 31.674 144.021 32.456 145.291 34.02C146.56 35.584 147.195 37.7487 147.195 40.514ZM144.101 39.596C144.101 37.828 143.749 36.4793 143.047 35.55C142.344 34.6207 141.29 34.156 139.885 34.156C137.323 34.156 135.929 36.0373 135.703 39.8H144.101V39.596ZM173.836 50L172.068 44.118H163.194L161.426 50H158.162L165.676 26.574H169.756L177.236 50H173.836ZM163.976 41.5H171.286L167.648 29.26L163.976 41.5ZM188.464 31.674C189.099 31.674 189.688 31.742 190.232 31.878L189.654 34.938C189.11 34.802 188.589 34.734 188.09 34.734C186.98 34.734 186.084 35.142 185.404 35.958C184.724 36.774 184.192 38.0433 183.806 39.766V50H180.678V32.082H183.364L183.67 35.72C184.146 34.3827 184.792 33.374 185.608 32.694C186.424 32.014 187.376 31.674 188.464 31.674ZM206.296 40.514C206.296 41.0353 206.274 41.568 206.228 42.112H194.804C194.94 44.084 195.439 45.5347 196.3 46.464C197.162 47.3933 198.272 47.858 199.632 47.858C200.494 47.858 201.287 47.7333 202.012 47.484C202.738 47.2347 203.497 46.838 204.29 46.294L205.65 48.164C203.746 49.66 201.661 50.408 199.394 50.408C196.901 50.408 194.952 49.592 193.546 47.96C192.164 46.328 191.472 44.084 191.472 41.228C191.472 39.3693 191.767 37.726 192.356 36.298C192.968 34.8473 193.83 33.714 194.94 32.898C196.074 32.082 197.4 31.674 198.918 31.674C201.298 31.674 203.123 32.456 204.392 34.02C205.662 35.584 206.296 37.7487 206.296 40.514ZM203.202 39.596C203.202 37.828 202.851 36.4793 202.148 35.55C201.446 34.6207 200.392 34.156 198.986 34.156C196.425 34.156 195.031 36.0373 194.804 39.8H203.202V39.596ZM223.029 45.818C223.029 46.5433 223.154 47.0873 223.403 47.45C223.653 47.79 224.027 48.0507 224.525 48.232L223.811 50.408C222.882 50.2947 222.134 50.034 221.567 49.626C221.001 49.218 220.581 48.5833 220.309 47.722C219.108 49.5127 217.329 50.408 214.971 50.408C213.203 50.408 211.809 49.9093 210.789 48.912C209.769 47.9147 209.259 46.6113 209.259 45.002C209.259 43.098 209.939 41.636 211.299 40.616C212.682 39.596 214.631 39.086 217.147 39.086H219.901V37.76C219.901 36.4907 219.595 35.584 218.983 35.04C218.371 34.496 217.431 34.224 216.161 34.224C214.847 34.224 213.237 34.5413 211.333 35.176L210.551 32.898C212.773 32.082 214.835 31.674 216.739 31.674C218.847 31.674 220.423 32.1953 221.465 33.238C222.508 34.258 223.029 35.72 223.029 37.624V45.818ZM215.685 48.062C217.476 48.062 218.881 47.1327 219.901 45.274V41.16H217.555C214.246 41.16 212.591 42.384 212.591 44.832C212.591 45.8973 212.852 46.702 213.373 47.246C213.895 47.79 214.665 48.062 215.685 48.062ZM233.984 31.674C235.208 31.674 236.307 31.844 237.282 32.184C238.256 32.524 239.186 33.034 240.07 33.714L238.744 35.686C237.928 35.1647 237.146 34.7793 236.398 34.53C235.672 34.2807 234.902 34.156 234.086 34.156C233.066 34.156 232.261 34.3713 231.672 34.802C231.082 35.21 230.788 35.7767 230.788 36.502C230.788 37.2273 231.06 37.794 231.604 38.202C232.17 38.61 233.179 39.0067 234.63 39.392C236.624 39.8907 238.109 40.5707 239.084 41.432C240.081 42.2933 240.58 43.472 240.58 44.968C240.58 46.736 239.888 48.0847 238.506 49.014C237.146 49.9433 235.48 50.408 233.508 50.408C230.788 50.408 228.532 49.626 226.742 48.062L228.408 46.158C229.926 47.314 231.604 47.892 233.44 47.892C234.618 47.892 235.548 47.654 236.228 47.178C236.93 46.6793 237.282 46.0107 237.282 45.172C237.282 44.56 237.157 44.0727 236.908 43.71C236.658 43.3247 236.228 42.996 235.616 42.724C235.004 42.4293 234.108 42.1233 232.93 41.806C231.026 41.3073 229.643 40.6387 228.782 39.8C227.943 38.9613 227.524 37.896 227.524 36.604C227.524 35.6747 227.796 34.836 228.34 34.088C228.906 33.3173 229.677 32.728 230.652 32.32C231.649 31.8893 232.76 31.674 233.984 31.674Z" fill="#0C03B9"/>
</g>
<defs>
<filter id="filter0_i_86_179" x="0" y="0" width="271" height="81" filterUnits="userSpaceOnUse" color-interpolation-filters="sRGB">
<feFlood flood-opacity="0" result="BackgroundImageFix"/>
<feBlend mode="normal" in="SourceGraphic" in2="BackgroundImageFix" result="shape"/>
<feColorMatrix in="SourceAlpha" type="matrix" values="0 0 0 0 0 0 0 0 0 0 0 0 0 0 0 0 0 0 127 0" result="hardAlpha"/>
<feOffset dx="2" dy="4"/>
<feGaussianBlur stdDeviation="2"/>
<feComposite in2="hardAlpha" operator="arithmetic" k2="-1" k3="1"/>
<feColorMatrix type="matrix" values="0 0 0 0 0 0 0 0 0 0 0 0 0 0 0 0 0 0 0.25 0"/>
<feBlend mode="normal" in2="shape" result="effect1_innerShadow_86_179"/>
</filter>
</defs>
</svg>
